<svg xmlns="http://www.w3.org/2000/svg" viewBox="0 0 485.29 414.64"><defs><style>.cls-1{fill:#fff;}</style></defs><g id="Capa_2" data-name="Capa 2"><g id="Layer_1" data-name="Layer 1"><path class="cls-1" d="M334.76,0Q265.91,0,225.1,7T166.77,31.5q-17.49,17.49-17.5,49,0,40.86,27.43,63t67.07,22.17q37.32,0,67.66-15.75t51.33-45.49a144.76,144.76,0,0,0,14.36-25.57,153.74,153.74,0,0,0,12.47-61.59V0ZM302,127.08a3.17,3.17,0,0,1-4.48,0l-15.46-15.29a1.71,1.71,0,0,1-.13-2.26C296.05,91,287.89,65.42,268.73,58.1a31.09,31.09,0,0,0-22.67.56c-23.93,9.63-24.65,41.61-12.42,50.39a2,2,0,0,1,.12,3.19l-16.37,14a3.28,3.28,0,0,1-4.61-.38c-27.6-32.32-8.37-86.65,31-96.3,6.13-1.51,12.07-2.4,18.33-1.63C317.43,34.78,334.76,93.92,302,127.08Z"/><path class="cls-1" d="M132.78,206.93q-14.69-9.47-40.45-9.46a152.94,152.94,0,0,0-27.89,2.77,124.45,124.45,0,0,0-28.54,9q-7.18,3.27-10.27,7.83a14.56,14.56,0,0,0-2.78,9.3,13.14,13.14,0,0,0,3.43,8.15,14.19,14.19,0,0,0,8,4.4q4.89,1,11.09-1.63a100.2,100.2,0,0,1,20.88-7,101.54,101.54,0,0,1,20.87-2.12q18.27,0,25.61,8.15t4.73,23.49h0a7,7,0,0,1-6.89,5.87H94q-31,0-50.88,5.22T13.72,286.68q-9.46,10.6-9.46,27.56A43.94,43.94,0,0,0,11.6,339,54.84,54.84,0,0,0,57.75,363.5a59.55,59.55,0,0,0,21.37-3.92,52.55,52.55,0,0,0,18.59-12.23A51.15,51.15,0,0,0,105.58,337l-.53,3.31q-1.64,11.09,2.78,16.8t13.21,5.7q9.45,0,15.16-5t7-15.17l11.41-72.74q3.27-20.87-1.95-37.18A46.88,46.88,0,0,0,132.78,206.93Zm-29,111.39a39.3,39.3,0,0,1-33.27,17.13q-11.1,0-18.76-6.2t-7.67-17.62q0-8.81,4.9-13.7t16.31-6.85q11.42-1.95,30.66-1.95h7.26a8.17,8.17,0,0,1,8.07,9.45h0A44.67,44.67,0,0,1,103.75,318.32Z"/><path class="cls-1" d="M393.63,204.64q-11.58-7.17-28.54-7.17-19.9,0-34.91,9.29a61.19,61.19,0,0,0-21,22.22c-2.91-9.34-7.53-16.66-13.91-21.89q-11.75-9.61-30-9.62a60.41,60.41,0,0,0-31.8,9,59.66,59.66,0,0,0-19.12,19L215,221q1.64-10.75-2.77-16.79t-13.86-6q-9.47,0-15.17,4.89t-7.34,14.68l-19.57,122q-1.64,11.08,2.77,17.12t13.86,6q20.88,0,23.82-19.57l10.76-68.82q3.59-21.21,14.19-33.11a34.07,34.07,0,0,1,26.58-11.91q13.38,0,18.6,8.81t2.6,26.09l-12.06,75.36q-1.63,11.08,2.93,17.12t14.35,6q9.79,0,15.82-5t7.34-14.52l10.77-68.82q3.58-21.21,14-33.11a33.62,33.62,0,0,1,26.43-11.91q13.36,0,18.59,8.81t2.61,26.09l-11.75,75.36q-1.63,11.08,2.94,17.12t14.68,6q9.78,0,15.49-5t7-14.52L411.08,265q3.59-23.16-1.14-38.17T393.63,204.64Z"/><path class="cls-1" d="M456.76,198.12q-10.11,0-16,5t-7.5,15.17L414,339q-1.63,11.1,2.78,17.45t13.86,6.36q10.44,0,16.15-5t7.33-15.17L473.4,221.93q1.62-11.42-2.77-17.61T456.76,198.12Z"/><path class="cls-1" d="M6.79,407.71a3.64,3.64,0,0,0,0,.66,3.71,3.71,0,0,0,.76,2.53,2.65,2.65,0,0,0,2.12.87,6.51,6.51,0,0,0,.88-.06,5.6,5.6,0,0,1,.71-.06.85.85,0,0,1,.7.35,1.65,1.65,0,0,1,.25,1,1.31,1.31,0,0,1-.71,1.29,6,6,0,0,1-2.53.37,5.84,5.84,0,0,1-4.35-1.55A5.84,5.84,0,0,1,3,408.74c0-.39,0-.7,0-.92l.67-8.56H1.55a1.61,1.61,0,0,1-1.14-.37,1.3,1.3,0,0,1-.41-1,1.39,1.39,0,0,1,.44-1.09,1.91,1.91,0,0,1,1.29-.39H4l.29-3.84a1.83,1.83,0,0,1,.63-1.25,2,2,0,0,1,1.37-.48,1.78,1.78,0,0,1,1.32.48A1.53,1.53,0,0,1,8,392.58l-.3,3.8h3.66a1.56,1.56,0,0,1,1.1.37,1.3,1.3,0,0,1,.41,1c0,1-.57,1.51-1.7,1.51H7.45Z"/><path class="cls-1" d="M30.16,396.47a1.7,1.7,0,0,1,.42,1.35l-1.21,15.05a1.64,1.64,0,0,1-.61,1.24,2.17,2.17,0,0,1-1.39.46,1.72,1.72,0,0,1-1.23-.43,1.44,1.44,0,0,1-.43-1.19l.12-1.3a6.27,6.27,0,0,1-2.46,2.22,7.53,7.53,0,0,1-3.41.77,6,6,0,0,1-4.54-1.6,6.54,6.54,0,0,1-1.55-4.71,8.2,8.2,0,0,1,0-1l.77-9.52a1.89,1.89,0,0,1,.63-1.33,2,2,0,0,1,1.36-.48,1.79,1.79,0,0,1,1.33.48,1.58,1.58,0,0,1,.41,1.33l-.78,9.3,0,.66q0,3.84,3.58,3.84a4.53,4.53,0,0,0,3.46-1.37,5.93,5.93,0,0,0,1.48-3.76l.74-8.67a1.75,1.75,0,0,1,.59-1.33,2.05,2.05,0,0,1,1.4-.48A1.8,1.8,0,0,1,30.16,396.47Z"/><path class="cls-1" d="M57.81,402.28a9.66,9.66,0,0,1,0,1.07L57,412.87a1.76,1.76,0,0,1-.54,1.26,1.92,1.92,0,0,1-1.31.44,1.72,1.72,0,0,1-1.29-.5,1.57,1.57,0,0,1-.41-1.27l.08-1.26a5.51,5.51,0,0,1-2.14,2.31,6.19,6.19,0,0,1-3.17.79,6.73,6.73,0,0,1-4.45-1.45,5.15,5.15,0,0,1-.68-7,6.43,6.43,0,0,1,3.41-1.76,28.43,28.43,0,0,1,6.29-.55h1.33l.07-.92a4,4,0,0,0-.74-3.08,3.7,3.7,0,0,0-2.87-1,11.37,11.37,0,0,0-5.39,1.62,1.43,1.43,0,0,1-.74.19,1.2,1.2,0,0,1-.92-.41,1.36,1.36,0,0,1-.37-1,1.72,1.72,0,0,1,.92-1.47,11.33,11.33,0,0,1,3.16-1.41,13.72,13.72,0,0,1,3.71-.51Q57.82,395.94,57.81,402.28Zm-5.42,8.23A5.55,5.55,0,0,0,53.9,407l.07-1h-1a23.7,23.7,0,0,0-4.28.3,4.18,4.18,0,0,0-2.21,1,2.45,2.45,0,0,0-.67,1.84,2.51,2.51,0,0,0,.91,2.05,3.72,3.72,0,0,0,2.45.76A4.37,4.37,0,0,0,52.39,410.51Z"/><path class="cls-1" d="M64,414.18A11,11,0,0,1,61.09,413a1.77,1.77,0,0,1-1-1.55,1.53,1.53,0,0,1,.39-1,1.22,1.22,0,0,1,.94-.44,1.52,1.52,0,0,1,.81.26,9.91,9.91,0,0,0,5.47,1.62q3.87,0,3.87-2.29a1.79,1.79,0,0,0-1-1.64,14.09,14.09,0,0,0-3.1-1.16,24.36,24.36,0,0,1-3.09-1.07,5.33,5.33,0,0,1-2-1.53,4,4,0,0,1-.85-2.64,4.77,4.77,0,0,1,2-4,9,9,0,0,1,5.48-1.51,10.35,10.35,0,0,1,3.18.5,7.14,7.14,0,0,1,2.54,1.31,1.63,1.63,0,0,1,.78,1.36,1.51,1.51,0,0,1-.35,1,1.14,1.14,0,0,1-.91.42,1.67,1.67,0,0,1-.92-.29,8,8,0,0,0-4.5-1.44,5.31,5.31,0,0,0-2.84.63,2,2,0,0,0-1,1.84,1.77,1.77,0,0,0,1,1.62A15,15,0,0,0,69.1,404a25.16,25.16,0,0,1,3.1,1.07,5.41,5.41,0,0,1,2,1.53,4.07,4.07,0,0,1,.85,2.67,4.53,4.53,0,0,1-2,3.93,9.57,9.57,0,0,1-5.57,1.42A13.07,13.07,0,0,1,64,414.18Z"/><path class="cls-1" d="M78.42,414.13A1.49,1.49,0,0,1,78,412.8l1.22-15.05a1.6,1.6,0,0,1,.63-1.3A2.21,2.21,0,0,1,81.2,396a1.85,1.85,0,0,1,1.29.44,1.57,1.57,0,0,1,.44,1.3L81.72,412.8a1.77,1.77,0,0,1-.63,1.34,2.13,2.13,0,0,1-1.36.43A1.9,1.9,0,0,1,78.42,414.13ZM80,391.81a2.06,2.06,0,0,1-.62-1.55,2,2,0,0,1,.62-1.53,2.75,2.75,0,0,1,3.38,0,1.94,1.94,0,0,1,.64,1.53,2,2,0,0,1-.62,1.55,2.74,2.74,0,0,1-3.4,0Z"/><path class="cls-1" d="M88.8,414.18A11,11,0,0,1,85.88,413a1.78,1.78,0,0,1-.95-1.55,1.52,1.52,0,0,1,.38-1,1.22,1.22,0,0,1,.94-.44,1.58,1.58,0,0,1,.82.26,9.86,9.86,0,0,0,5.46,1.62q3.87,0,3.87-2.29a1.79,1.79,0,0,0-1-1.64,14.09,14.09,0,0,0-3.1-1.16,24.94,24.94,0,0,1-3.09-1.07,5.33,5.33,0,0,1-2-1.53,4,4,0,0,1-.85-2.64,4.75,4.75,0,0,1,2-4,9,9,0,0,1,5.47-1.51,10.35,10.35,0,0,1,3.18.5,7.14,7.14,0,0,1,2.54,1.31,1.63,1.63,0,0,1,.78,1.36,1.51,1.51,0,0,1-.35,1,1.14,1.14,0,0,1-.91.42,1.69,1.69,0,0,1-.92-.29,8,8,0,0,0-4.5-1.44,5.31,5.31,0,0,0-2.84.63,2,2,0,0,0-1,1.84,1.77,1.77,0,0,0,1,1.62A15,15,0,0,0,93.89,404a25.16,25.16,0,0,1,3.1,1.07,5.41,5.41,0,0,1,2,1.53,4.07,4.07,0,0,1,.85,2.67,4.53,4.53,0,0,1-2,3.93,9.55,9.55,0,0,1-5.57,1.42A13.07,13.07,0,0,1,88.8,414.18Z"/><path class="cls-1" d="M107.87,407.71a5.28,5.28,0,0,0,0,.66,3.77,3.77,0,0,0,.75,2.53,2.67,2.67,0,0,0,2.12.87,6.54,6.54,0,0,0,.89-.06,5.61,5.61,0,0,1,.7-.06.82.82,0,0,1,.7.35,1.65,1.65,0,0,1,.26,1,1.31,1.31,0,0,1-.72,1.29,6,6,0,0,1-2.53.37,5.39,5.39,0,0,1-5.9-5.9,7.43,7.43,0,0,1,0-.92l.66-8.56h-2.17a1.62,1.62,0,0,1-1.15-.37,1.33,1.33,0,0,1-.4-1,1.35,1.35,0,0,1,.44-1.09,1.88,1.88,0,0,1,1.29-.39H105l.3-3.84a1.83,1.83,0,0,1,.63-1.25,2,2,0,0,1,1.36-.48,1.79,1.79,0,0,1,1.33.48,1.53,1.53,0,0,1,.4,1.29l-.29,3.8h3.65a1.57,1.57,0,0,1,1.11.37,1.29,1.29,0,0,1,.4,1c0,1-.56,1.51-1.69,1.51h-3.69Z"/><path class="cls-1" d="M130.43,405.62a1.39,1.39,0,0,1-1.05.39H117.91a6.12,6.12,0,0,0,1.4,4.22,5.07,5.07,0,0,0,4,1.5,8.41,8.41,0,0,0,4.79-1.48,1.55,1.55,0,0,1,.82-.26,1,1,0,0,1,.84.41,1.43,1.43,0,0,1,.34,1,1.78,1.78,0,0,1-.74,1.44,8,8,0,0,1-2.75,1.33,12.54,12.54,0,0,1-3.52.51,9.62,9.62,0,0,1-4.65-1.07,7.39,7.39,0,0,1-3.08-3.06,9.41,9.41,0,0,1-1.09-4.61,11.5,11.5,0,0,1,1.12-5.18,8.47,8.47,0,0,1,3.16-3.53,8.76,8.76,0,0,1,4.68-1.25,7.25,7.25,0,0,1,5.67,2.19q2,2.21,2,6.37A1.51,1.51,0,0,1,130.43,405.62ZM119.75,400a6.62,6.62,0,0,0-1.69,3.87h9.52a5.61,5.61,0,0,0-1.06-3.87,3.93,3.93,0,0,0-3.19-1.33A4.83,4.83,0,0,0,119.75,400Z"/><path class="cls-1" d="M148.58,397.52a6.39,6.39,0,0,1,1.57,4.69q0,.74,0,1.11l-.74,9.48a1.87,1.87,0,0,1-.61,1.31,2.09,2.09,0,0,1-1.38.46,1.87,1.87,0,0,1-1.33-.46,1.54,1.54,0,0,1-.41-1.31l.74-9.3a6.7,6.7,0,0,0,0-.77q0-3.76-3.62-3.77a4.86,4.86,0,0,0-3.63,1.37,5.8,5.8,0,0,0-1.53,3.8l-.7,8.67a1.91,1.91,0,0,1-.61,1.31,2.1,2.1,0,0,1-1.39.46,1.82,1.82,0,0,1-1.31-.46,1.64,1.64,0,0,1-.42-1.31l1.22-15.09a1.59,1.59,0,0,1,.62-1.24,2.27,2.27,0,0,1,1.41-.46,1.65,1.65,0,0,1,1.21.44,1.56,1.56,0,0,1,.41,1.22L138,399a6.18,6.18,0,0,1,2.49-2.23,7.66,7.66,0,0,1,3.52-.79A6.19,6.19,0,0,1,148.58,397.52Z"/><path class="cls-1" d="M158.79,407.71a3.64,3.64,0,0,0,0,.66,3.77,3.77,0,0,0,.75,2.53,2.69,2.69,0,0,0,2.13.87,6.51,6.51,0,0,0,.88-.06,5.61,5.61,0,0,1,.7-.06.82.82,0,0,1,.7.35,1.58,1.58,0,0,1,.26,1,1.31,1.31,0,0,1-.72,1.29,6,6,0,0,1-2.52.37,5.39,5.39,0,0,1-5.91-5.9,7.43,7.43,0,0,1,0-.92l.66-8.56h-2.17a1.62,1.62,0,0,1-1.15-.37,1.33,1.33,0,0,1-.4-1,1.35,1.35,0,0,1,.44-1.09,1.91,1.91,0,0,1,1.29-.39h2.21l.3-3.84a1.83,1.83,0,0,1,.63-1.25,2,2,0,0,1,1.36-.48,1.79,1.79,0,0,1,1.33.48,1.56,1.56,0,0,1,.41,1.29l-.3,3.8h3.65a1.57,1.57,0,0,1,1.11.37,1.3,1.3,0,0,1,.41,1c0,1-.57,1.51-1.7,1.51h-3.69Z"/><path class="cls-1" d="M181.35,405.62a1.43,1.43,0,0,1-1.06.39H168.82a6.12,6.12,0,0,0,1.4,4.22,5.07,5.07,0,0,0,3.95,1.5,8.46,8.46,0,0,0,4.8-1.48,1.52,1.52,0,0,1,.81-.26,1.06,1.06,0,0,1,.85.41,1.47,1.47,0,0,1,.33,1,1.78,1.78,0,0,1-.74,1.44,7.92,7.92,0,0,1-2.75,1.33,12.54,12.54,0,0,1-3.52.51,9.62,9.62,0,0,1-4.65-1.07,7.44,7.44,0,0,1-3.08-3.06,9.41,9.41,0,0,1-1.09-4.61,11.5,11.5,0,0,1,1.13-5.18,8.45,8.45,0,0,1,3.15-3.53,8.79,8.79,0,0,1,4.69-1.25,7.23,7.23,0,0,1,5.66,2.19c1.32,1.47,2,3.59,2,6.37A1.55,1.55,0,0,1,181.35,405.62ZM170.67,400a6.57,6.57,0,0,0-1.7,3.87h9.52a5.56,5.56,0,0,0-1.05-3.87,4,4,0,0,0-3.2-1.33A4.79,4.79,0,0,0,170.67,400Z"/><path class="cls-1" d="M218.94,397.51a6.5,6.5,0,0,1,1.46,4.59c0,.52,0,.91,0,1.18l-.74,9.52a1.8,1.8,0,0,1-.62,1.34,2.16,2.16,0,0,1-1.37.43,1.92,1.92,0,0,1-1.31-.44,1.52,1.52,0,0,1-.42-1.33l.73-9.37a6.23,6.23,0,0,0,0-.85q0-3.61-3.17-3.62a4.15,4.15,0,0,0-3.27,1.35,6.7,6.7,0,0,0-1.42,4l-.66,8.52a1.77,1.77,0,0,1-.63,1.34,2.13,2.13,0,0,1-1.36.43,1.9,1.9,0,0,1-1.31-.44,1.49,1.49,0,0,1-.43-1.33l.74-9.34a8.65,8.65,0,0,0,0-.88,4,4,0,0,0-.8-2.73A3.07,3.07,0,0,0,202,399a4.1,4.1,0,0,0-3.25,1.35,6.76,6.76,0,0,0-1.4,4l-.7,8.52a1.77,1.77,0,0,1-.63,1.34,2.13,2.13,0,0,1-1.36.43,1.9,1.9,0,0,1-1.31-.44,1.49,1.49,0,0,1-.43-1.33l1.22-15.09a1.57,1.57,0,0,1,.64-1.26,2.35,2.35,0,0,1,1.39-.44,1.68,1.68,0,0,1,1.22.43,1.51,1.51,0,0,1,.4,1.23l-.07,1.18a6.88,6.88,0,0,1,8.93-2.06,4.73,4.73,0,0,1,1.91,2.47,6.69,6.69,0,0,1,2.55-2.46,7.43,7.43,0,0,1,3.58-.86A5.51,5.51,0,0,1,218.94,397.51Z"/><path class="cls-1" d="M227.41,413.57a7.33,7.33,0,0,1-3-3.06,9.62,9.62,0,0,1-1.07-4.61,11.67,11.67,0,0,1,1.13-5.28,8.12,8.12,0,0,1,3.17-3.46,9,9,0,0,1,4.74-1.22A9.27,9.27,0,0,1,237,397a7.57,7.57,0,0,1,3,3.06,9.59,9.59,0,0,1,1.07,4.63,11.55,11.55,0,0,1-1.13,5.26,8.34,8.34,0,0,1-3.17,3.45,10.17,10.17,0,0,1-9.35.14Zm8.52-3.8a8.74,8.74,0,0,0,1.36-5.16,6.25,6.25,0,0,0-1.27-4.23,5.14,5.14,0,0,0-7.58.46,8.77,8.77,0,0,0-1.37,5.17,6.21,6.21,0,0,0,1.28,4.24,4.64,4.64,0,0,0,3.67,1.44A4.51,4.51,0,0,0,235.93,409.77Zm-2.51-15.6a1,1,0,0,1-.68-.26.85.85,0,0,1-.28-.67,1.36,1.36,0,0,1,.22-.7l3.88-5.35a1.69,1.69,0,0,1,1.44-.88,1.64,1.64,0,0,1,1.16.46,1.45,1.45,0,0,1,.5,1.09,1.71,1.71,0,0,1-.56,1.22l-4.68,4.61A1.43,1.43,0,0,1,233.42,394.17Z"/><path class="cls-1" d="M258.73,396.16a1.85,1.85,0,0,1,1.22.44,1.42,1.42,0,0,1,.51,1.11,1.59,1.59,0,0,1-.22.77l-7.75,14.76a2.27,2.27,0,0,1-1,1.05,2.57,2.57,0,0,1-1.3.35,2.36,2.36,0,0,1-1.31-.38,2.26,2.26,0,0,1-.83-1.13l-5.38-14.72a1.45,1.45,0,0,1-.11-.55,1.49,1.49,0,0,1,.61-1.2,2,2,0,0,1,1.34-.5,1.54,1.54,0,0,1,.92.28,1.59,1.59,0,0,1,.6.83l4.5,13,6.6-13A1.64,1.64,0,0,1,258.73,396.16Z"/><path class="cls-1" d="M262,414.13a1.52,1.52,0,0,1-.42-1.33l1.22-15.05a1.62,1.62,0,0,1,.62-1.3,2.26,2.26,0,0,1,1.37-.44,1.85,1.85,0,0,1,1.29.44,1.57,1.57,0,0,1,.44,1.3L265.3,412.8a1.77,1.77,0,0,1-.63,1.34,2.16,2.16,0,0,1-1.37.43A1.94,1.94,0,0,1,262,414.13Zm1.57-22.32a2,2,0,0,1-.63-1.55,2,2,0,0,1,.63-1.53,2.75,2.75,0,0,1,3.38,0,1.94,1.94,0,0,1,.64,1.53,2.06,2.06,0,0,1-.62,1.55,2.74,2.74,0,0,1-3.4,0Z"/><path class="cls-1" d="M270,414.13a1.52,1.52,0,0,1-.42-1.33l1.84-22.88a1.65,1.65,0,0,1,.63-1.32,2.19,2.19,0,0,1,1.37-.45,1.83,1.83,0,0,1,1.27.45,1.59,1.59,0,0,1,.46,1.32l-1.85,22.88a1.76,1.76,0,0,1-.62,1.34,2.16,2.16,0,0,1-1.37.43A1.92,1.92,0,0,1,270,414.13Z"/><path class="cls-1" d="M304.25,388.63a1.61,1.61,0,0,1,.45,1.26l-1.81,22.91a1.74,1.74,0,0,1-.59,1.31,2.12,2.12,0,0,1-1.37.46,1.82,1.82,0,0,1-1.29-.46,1.54,1.54,0,0,1-.4-1.31l.07-1.15a5.82,5.82,0,0,1-2.4,2.2,7.3,7.3,0,0,1-3.39.79,7.61,7.61,0,0,1-4-1.05,7,7,0,0,1-2.72-3,10.22,10.22,0,0,1-1-4.57,12.41,12.41,0,0,1,1.07-5.28,8.39,8.39,0,0,1,3-3.54,8,8,0,0,1,4.45-1.25,7.08,7.08,0,0,1,3.5.83,5.82,5.82,0,0,1,2.36,2.38l.74-9.34a1.58,1.58,0,0,1,.59-1.21,2.09,2.09,0,0,1,1.37-.45A1.78,1.78,0,0,1,304.25,388.63Zm-5.79,21.2a8.2,8.2,0,0,0,1.4-5.07,6.46,6.46,0,0,0-1.29-4.34,5.14,5.14,0,0,0-7.56.35,8.14,8.14,0,0,0-1.4,5.05,6.43,6.43,0,0,0,1.31,4.34,5.05,5.05,0,0,0,7.54-.33Z"/><path class="cls-1" d="M322.9,405.62a1.42,1.42,0,0,1-1,.39H310.38a6.12,6.12,0,0,0,1.4,4.22,5.06,5.06,0,0,0,4,1.5,8.41,8.41,0,0,0,4.79-1.48,1.52,1.52,0,0,1,.81-.26,1,1,0,0,1,.85.41,1.48,1.48,0,0,1,.34,1,1.78,1.78,0,0,1-.74,1.44,8,8,0,0,1-2.75,1.33,12.54,12.54,0,0,1-3.52.51,9.59,9.59,0,0,1-4.65-1.07,7.39,7.39,0,0,1-3.08-3.06,9.41,9.41,0,0,1-1.09-4.61,11.5,11.5,0,0,1,1.12-5.18,8.47,8.47,0,0,1,3.16-3.53,8.76,8.76,0,0,1,4.68-1.25,7.25,7.25,0,0,1,5.67,2.19q2,2.21,2,6.37A1.51,1.51,0,0,1,322.9,405.62ZM312.22,400a6.62,6.62,0,0,0-1.69,3.87H320A5.56,5.56,0,0,0,319,400a3.93,3.93,0,0,0-3.19-1.33A4.83,4.83,0,0,0,312.22,400Z"/><path class="cls-1" d="M334.89,414.13a1.52,1.52,0,0,1-.42-1.33l1.22-15.05a1.62,1.62,0,0,1,.62-1.3,2.26,2.26,0,0,1,1.37-.44,1.85,1.85,0,0,1,1.29.44,1.57,1.57,0,0,1,.44,1.3L338.2,412.8a1.77,1.77,0,0,1-.63,1.34,2.16,2.16,0,0,1-1.37.43A1.94,1.94,0,0,1,334.89,414.13Zm1.57-22.32a2,2,0,0,1-.63-1.55,2,2,0,0,1,.63-1.53,2.75,2.75,0,0,1,3.38,0,1.94,1.94,0,0,1,.64,1.53,2.06,2.06,0,0,1-.62,1.55,2.74,2.74,0,0,1-3.4,0Z"/><path class="cls-1" d="M360.4,388.63a1.61,1.61,0,0,1,.45,1.26L359,412.8a1.74,1.74,0,0,1-.59,1.31,2.12,2.12,0,0,1-1.37.46,1.82,1.82,0,0,1-1.29-.46,1.54,1.54,0,0,1-.4-1.31l.07-1.15a5.88,5.88,0,0,1-2.4,2.2,7.3,7.3,0,0,1-3.39.79,7.61,7.61,0,0,1-4-1.05,7,7,0,0,1-2.72-3,10.22,10.22,0,0,1-1-4.57,12.41,12.41,0,0,1,1.07-5.28,8.39,8.39,0,0,1,3-3.54,8,8,0,0,1,4.45-1.25,7.1,7.1,0,0,1,3.5.83,5.82,5.82,0,0,1,2.36,2.38l.74-9.34a1.55,1.55,0,0,1,.59-1.21,2.09,2.09,0,0,1,1.37-.45A1.78,1.78,0,0,1,360.4,388.63Zm-5.79,21.2a8.2,8.2,0,0,0,1.4-5.07,6.46,6.46,0,0,0-1.29-4.34,5.14,5.14,0,0,0-7.56.35,8.14,8.14,0,0,0-1.4,5.05,6.43,6.43,0,0,0,1.31,4.34,5.05,5.05,0,0,0,7.54-.33Z"/><path class="cls-1" d="M379.05,405.62A1.42,1.42,0,0,1,378,406H366.53a6.12,6.12,0,0,0,1.4,4.22,5.07,5.07,0,0,0,3.95,1.5,8.41,8.41,0,0,0,4.79-1.48,1.52,1.52,0,0,1,.82-.26,1,1,0,0,1,.84.41,1.48,1.48,0,0,1,.34,1,1.78,1.78,0,0,1-.74,1.44,8,8,0,0,1-2.75,1.33,12.54,12.54,0,0,1-3.52.51,9.59,9.59,0,0,1-4.65-1.07,7.39,7.39,0,0,1-3.08-3.06,9.41,9.41,0,0,1-1.09-4.61,11.5,11.5,0,0,1,1.12-5.18,8.47,8.47,0,0,1,3.16-3.53,8.76,8.76,0,0,1,4.68-1.25,7.25,7.25,0,0,1,5.67,2.19q2,2.21,2,6.37A1.51,1.51,0,0,1,379.05,405.62ZM368.37,400a6.62,6.62,0,0,0-1.69,3.87h9.51a5.56,5.56,0,0,0-1.05-3.87,3.93,3.93,0,0,0-3.19-1.33A4.83,4.83,0,0,0,368.37,400Z"/><path class="cls-1" d="M397.2,397.52a6.39,6.39,0,0,1,1.57,4.69q0,.74,0,1.11L398,412.8a1.87,1.87,0,0,1-.61,1.31,2.1,2.1,0,0,1-1.39.46,1.86,1.86,0,0,1-1.32-.46,1.54,1.54,0,0,1-.41-1.31l.74-9.3a6.7,6.7,0,0,0,0-.77q0-3.76-3.62-3.77a4.86,4.86,0,0,0-3.63,1.37,5.85,5.85,0,0,0-1.54,3.8l-.7,8.67a1.9,1.9,0,0,1-.6,1.31,2.1,2.1,0,0,1-1.39.46,1.82,1.82,0,0,1-1.31-.46,1.64,1.64,0,0,1-.42-1.31l1.22-15.09a1.59,1.59,0,0,1,.62-1.24,2.26,2.26,0,0,1,1.4-.46,1.66,1.66,0,0,1,1.22.44,1.56,1.56,0,0,1,.41,1.22L386.6,399a6.18,6.18,0,0,1,2.49-2.23,7.66,7.66,0,0,1,3.52-.79A6.19,6.19,0,0,1,397.2,397.52Z"/><path class="cls-1" d="M407.4,407.71a5.28,5.28,0,0,0,0,.66,3.77,3.77,0,0,0,.75,2.53,2.67,2.67,0,0,0,2.13.87,6.51,6.51,0,0,0,.88-.06,5.61,5.61,0,0,1,.7-.06.82.82,0,0,1,.7.35,1.58,1.58,0,0,1,.26,1,1.31,1.31,0,0,1-.72,1.29,6,6,0,0,1-2.53.37,5.39,5.39,0,0,1-5.9-5.9,7.43,7.43,0,0,1,0-.92l.66-8.56h-2.17a1.62,1.62,0,0,1-1.15-.37,1.33,1.33,0,0,1-.4-1,1.35,1.35,0,0,1,.44-1.09,1.88,1.88,0,0,1,1.29-.39h2.21l.3-3.84a1.83,1.83,0,0,1,.63-1.25,2,2,0,0,1,1.36-.48,1.79,1.79,0,0,1,1.33.48,1.53,1.53,0,0,1,.4,1.29l-.29,3.8h3.65a1.57,1.57,0,0,1,1.11.37,1.3,1.3,0,0,1,.41,1c0,1-.57,1.51-1.7,1.51h-3.69Z"/><path class="cls-1" d="M414.62,414.13a1.49,1.49,0,0,1-.43-1.33l1.22-15.05a1.6,1.6,0,0,1,.63-1.3,2.24,2.24,0,0,1,1.36-.44,1.85,1.85,0,0,1,1.29.44,1.61,1.61,0,0,1,.45,1.3l-1.22,15.05a1.77,1.77,0,0,1-.63,1.34,2.13,2.13,0,0,1-1.36.43A1.9,1.9,0,0,1,414.62,414.13Zm1.56-22.32a2.06,2.06,0,0,1-.62-1.55,2,2,0,0,1,.62-1.53,2.75,2.75,0,0,1,3.38,0,1.94,1.94,0,0,1,.65,1.53,2,2,0,0,1-.63,1.55,2.74,2.74,0,0,1-3.4,0Z"/><path class="cls-1" d="M440.13,388.63a1.6,1.6,0,0,1,.44,1.26l-1.81,22.91a1.71,1.71,0,0,1-.59,1.31,2.09,2.09,0,0,1-1.36.46,1.82,1.82,0,0,1-1.29-.46,1.54,1.54,0,0,1-.41-1.31l.07-1.15a5.79,5.79,0,0,1-2.39,2.2,7.37,7.37,0,0,1-3.4.79,7.63,7.63,0,0,1-4-1.05,7,7,0,0,1-2.71-3,10.22,10.22,0,0,1-1-4.57,12.41,12.41,0,0,1,1.07-5.28,8.3,8.3,0,0,1,3-3.54,8.09,8.09,0,0,1,4.45-1.25,7.12,7.12,0,0,1,3.51.83,5.94,5.94,0,0,1,2.36,2.38l.73-9.34a1.61,1.61,0,0,1,.59-1.21,2.11,2.11,0,0,1,1.37-.45A1.79,1.79,0,0,1,440.13,388.63Zm-5.79,21.2a8.27,8.27,0,0,0,1.4-5.07,6.46,6.46,0,0,0-1.29-4.34,5.15,5.15,0,0,0-7.57.35,8.21,8.21,0,0,0-1.4,5.05,6.48,6.48,0,0,0,1.31,4.34,5.07,5.07,0,0,0,7.55-.33Z"/><path class="cls-1" d="M458.43,402.28a9.66,9.66,0,0,1,0,1.07l-.74,9.52a1.71,1.71,0,0,1-.53,1.26,1.92,1.92,0,0,1-1.31.44,1.72,1.72,0,0,1-1.29-.5,1.53,1.53,0,0,1-.41-1.27l.07-1.26a5.45,5.45,0,0,1-2.14,2.31,6.16,6.16,0,0,1-3.17.79,6.7,6.7,0,0,1-4.44-1.45,4.67,4.67,0,0,1-1.76-3.75,4.73,4.73,0,0,1,1.07-3.26,6.47,6.47,0,0,1,3.42-1.76,28.37,28.37,0,0,1,6.29-.55h1.32l.08-.92a4,4,0,0,0-.74-3.08,3.73,3.73,0,0,0-2.88-1,11.34,11.34,0,0,0-5.38,1.62,1.46,1.46,0,0,1-.74.19,1.19,1.19,0,0,1-.92-.41,1.36,1.36,0,0,1-.37-1,1.7,1.7,0,0,1,.92-1.47,11.26,11.26,0,0,1,3.15-1.41,13.78,13.78,0,0,1,3.71-.51Q458.42,395.94,458.43,402.28ZM453,410.51a5.55,5.55,0,0,0,1.52-3.5l.07-1h-1a23.7,23.7,0,0,0-4.28.3,4.25,4.25,0,0,0-2.22,1,2.48,2.48,0,0,0-.66,1.84,2.54,2.54,0,0,0,.9,2.05,3.75,3.75,0,0,0,2.46.76A4.34,4.34,0,0,0,453,410.51Z"/><path class="cls-1" d="M479.75,388.63a1.57,1.57,0,0,1,.44,1.26l-1.8,22.91a1.74,1.74,0,0,1-.59,1.31,2.12,2.12,0,0,1-1.37.46,1.82,1.82,0,0,1-1.29-.46,1.54,1.54,0,0,1-.41-1.31l.08-1.15a5.88,5.88,0,0,1-2.4,2.2,7.3,7.3,0,0,1-3.39.79,7.64,7.64,0,0,1-4-1.05,7,7,0,0,1-2.71-3,10.22,10.22,0,0,1-1-4.57,12.41,12.41,0,0,1,1.07-5.28,8.32,8.32,0,0,1,3-3.54,8,8,0,0,1,4.44-1.25,7.12,7.12,0,0,1,3.51.83,5.88,5.88,0,0,1,2.36,2.38l.74-9.34a1.55,1.55,0,0,1,.59-1.21,2.08,2.08,0,0,1,1.36-.45A1.79,1.79,0,0,1,479.75,388.63ZM474,409.83a8.27,8.27,0,0,0,1.4-5.07,6.46,6.46,0,0,0-1.29-4.34,5.14,5.14,0,0,0-7.56.35,8.14,8.14,0,0,0-1.41,5.05,6.48,6.48,0,0,0,1.31,4.34,5.07,5.07,0,0,0,7.55-.33Z"/><path class="cls-1" d="M435.72,181.36c30.19.06,51.27-2.05,49.46-20.74a16.56,16.56,0,0,0-2.51-7.48C471.86,136.42,432.17,146.41,435.72,181.36Z"/></g></g></svg>