<svg xmlns="http://www.w3.org/2000/svg" viewBox="0 0 64.2 82.35"><defs><style>.cls-1{fill:#00267d;}</style></defs><g id="Capa_2" data-name="Capa 2"><g id="Layer_1" data-name="Layer 1"><path class="cls-1" d="M25.07,0a10.75,10.75,0,0,1,2.27,1.53,3.61,3.61,0,0,1,0,4.6,7.48,7.48,0,0,1-.76.83L13.89,19.64a7.56,7.56,0,0,1-.69.55l.1.24h.82c6.32,0,12.65-.05,19,0A30.51,30.51,0,0,1,57.16,31.71,28.85,28.85,0,0,1,64,47.32c1.33,11.85-2.78,21.51-12.18,28.82a29.63,29.63,0,0,1-18.23,6.18c-3.65.06-7.29,0-10.94,0a3.23,3.23,0,0,1-3.49-3.51,6.27,6.27,0,0,1,.49-2.55,3.17,3.17,0,0,1,3.17-1.62c3.89,0,7.78.13,11.66-.07A22.32,22.32,0,0,0,52.92,63.84a22.18,22.18,0,0,0,1.89-21.29A22.39,22.39,0,0,0,39,28.85a24.55,24.55,0,0,0-5.8-.7c-6.4-.09-12.81,0-19.21,0-.21,0-.41,0-.73,0,.27.3.46.51.66.71L26.73,41.72A3.92,3.92,0,0,1,27.91,46,3.84,3.84,0,0,1,22,47.77a8.6,8.6,0,0,1-.83-.76L1.56,27.4c-2.09-2.1-2.08-4.18,0-6.29q9.57-9.58,19.15-19.17A6.59,6.59,0,0,1,23.62,0Z"/></g></g></svg>