<svg xmlns="http://www.w3.org/2000/svg" viewBox="0 0 53.57 51.76"><defs><style>.cls-1{fill:#00267d;}</style></defs><g id="Capa_2" data-name="Capa 2"><g id="Layer_1" data-name="Layer 1"><path class="cls-1" d="M18.2,33.58a10.91,10.91,0,0,1-4.71,2.63A10.7,10.7,0,1,1,9.22,15.29a10.5,10.5,0,0,1,8,2.1.71.71,0,0,0,.91.07Q24.86,14,31.59,10.55a.77.77,0,0,0,.52-.71A10.73,10.73,0,1,1,43.93,21.32c-.38,0-.49.14-.49.51q0,4,0,8.07c0,.36.08.5.47.53A10.69,10.69,0,1,1,32.24,42.77a2.36,2.36,0,0,0-1.35-2c-4.19-2.34-8.33-4.75-12.49-7.14Zm.93-1L32,40c1-5.67,4.39-8.88,10.07-9.7V21.43c-5.68-.83-9-4-10.07-9.66L18.7,18.64A10.79,10.79,0,0,1,19.13,32.6ZM36.67,17.73c0-.74,0-1.39,0-2a4,4,0,0,1,3.5-3.58,1.13,1.13,0,0,1,1,.39,2.15,2.15,0,0,0,3.23,0,1.25,1.25,0,0,1,1.36-.37A4,4,0,0,1,49,16c0,.55,0,1.11,0,1.7a9.15,9.15,0,0,0,2.85-9.78,9.45,9.45,0,0,0-18.13.31A9.2,9.2,0,0,0,36.67,17.73ZM49,48.08a9.32,9.32,0,0,0,2.44-10.79,9.46,9.46,0,0,0-18,2.62C33.08,43,34.76,47.27,36.67,48c0-.67,0-1.32,0-2a3.94,3.94,0,0,1,3.65-3.59,1.18,1.18,0,0,1,.77.28,2.26,2.26,0,0,0,3.52,0,1.13,1.13,0,0,1,.8-.29,3.86,3.86,0,0,1,3.46,3.24C49,46.47,49,47.25,49,48.08ZM4.58,32.92c0-.65,0-1.2,0-1.76a4,4,0,0,1,3.35-3.85,1.21,1.21,0,0,1,1.26.39,2.14,2.14,0,0,0,3.22,0,1.21,1.21,0,0,1,1.27-.37,3.94,3.94,0,0,1,3.2,3.84c0,.57,0,1.13,0,1.77a9.33,9.33,0,0,0,2.8-10.07,9.45,9.45,0,0,0-17.88,0A9.28,9.28,0,0,0,4.58,32.92ZM38,17.1h0a10.4,10.4,0,0,0,0,1.25.83.83,0,0,0,.32.58,9.31,9.31,0,0,0,9.05,0,.64.64,0,0,0,.3-.48c0-.81,0-1.63,0-2.44a2.62,2.62,0,0,0-1.86-2.46.69.69,0,0,0-.56.11,3.57,3.57,0,0,1-4.73,0,.91.91,0,0,0-.66-.13A2.6,2.6,0,0,0,38,15.91C38,16.31,38,16.71,38,17.1ZM15.59,32.34h0c0-.43,0-.87,0-1.3a2.56,2.56,0,0,0-1.76-2.31.85.85,0,0,0-.66.11,3.58,3.58,0,0,1-4.73,0,.79.79,0,0,0-.62-.12,2.64,2.64,0,0,0-1.92,2.53c0,.74,0,1.48,0,2.22a.69.69,0,0,0,.46.74,9.4,9.4,0,0,0,8,.38c1.27-.51,1.26-.51,1.26-1.84ZM38,47.46h0a10.4,10.4,0,0,0,0,1.25.8.8,0,0,0,.33.57,9.29,9.29,0,0,0,9,0,.57.57,0,0,0,.37-.58c0-.79,0-1.58,0-2.38a2.65,2.65,0,0,0-1.75-2.44.61.61,0,0,0-.73.11,3.54,3.54,0,0,1-4.68,0,.85.85,0,0,0-.66-.13A2.59,2.59,0,0,0,38,46.17C38,46.6,38,47,38,47.46Z"/></g></g></svg>