<svg xmlns="http://www.w3.org/2000/svg" viewBox="0 0 69.59 90.98"><defs><style>.cls-1{fill:#00267d;}</style></defs><g id="Capa_2" data-name="Capa 2"><g id="Layer_1" data-name="Layer 1"><path class="cls-1" d="M14.11,28.52c0-2.54,0-5,0-7.47a20.67,20.67,0,0,1,41.3-1.59c.13,2.71.08,5.43.05,8.14,0,.78.24,1,1,1.16a15.84,15.84,0,0,1,13.1,15.43q.08,15.45,0,30.88A15.89,15.89,0,0,1,53.81,90.92q-19,.12-38.07,0A15.89,15.89,0,0,1,0,75Q0,59.65,0,44.26A15.89,15.89,0,0,1,13.28,28.72C13.52,28.68,13.76,28.61,14.11,28.52ZM34.76,87.36q9.12,0,18.23,0c7.69,0,13-5.34,13-13Q66,59.66,66,45c0-7.66-5.38-13-13-13q-18.18,0-36.35,0C8.92,32,3.56,37.3,3.55,45V74.29c0,7.74,5.34,13.06,13.09,13.07Q25.7,87.38,34.76,87.36Zm17-59c0-3.27.26-6.5-.05-9.67a17.07,17.07,0,0,0-33.39-2.58,25,25,0,0,0-.66,5.4c-.11,2.27,0,4.54,0,6.85Z"/><path class="cls-1" d="M34.83,76.37c-1.72,0-3.43,0-5.15,0a3.87,3.87,0,0,1-3.94-5q1.28-5.52,2.64-11A1.19,1.19,0,0,0,28,59a10.1,10.1,0,1,1,16.86-8.67,9.75,9.75,0,0,1-3.07,8.54,1.57,1.57,0,0,0-.5,1.75Q42.59,66,43.84,71.35a3.87,3.87,0,0,1-4,5C38.19,76.38,36.51,76.37,34.83,76.37Zm0-3.43h4.4c1.26,0,1.32-.08,1-1.27q-1.36-5.72-2.74-11.44c-.46-1.93-.43-2,1.17-3.22a6.56,6.56,0,1,0-7.64.06c1.48,1.06,1.55,1.27,1.13,3-.94,3.88-1.85,7.77-2.82,11.64-.23.94,0,1.24,1,1.21C31.78,72.9,33.28,72.94,34.78,72.94Z"/></g></g></svg>