<svg xmlns="http://www.w3.org/2000/svg" viewBox="0 0 78.01 78"><defs><style>.cls-1{fill:#00267d;}</style></defs><g id="Capa_2" data-name="Capa 2"><g id="Layer_1" data-name="Layer 1"><path class="cls-1" d="M41.3,78H36.73L36,77.86c-1.66-.23-3.34-.35-5-.72A38.32,38.32,0,0,1,4.37,56.8,37.58,37.58,0,0,1,.21,35.07,37.87,37.87,0,0,1,9.75,13.28,38.2,38.2,0,0,1,37.37.05,37.11,37.11,0,0,1,58.89,5.48,38.46,38.46,0,0,1,77.41,32.29c.27,1.46.4,3,.6,4.42v4.57c-.11,1-.21,2-.35,3a39,39,0,0,1-8,18.73A38.32,38.32,0,0,1,45.81,77.38C44.32,77.66,42.8,77.8,41.3,78ZM27.64,41.15a16.91,16.91,0,0,1,21-26.41,16.52,16.52,0,0,1,6.86,10.34c1.26,6.25-.63,11.58-5.16,16.06a31.65,31.65,0,0,1,18.2,19A36.36,36.36,0,0,0,12,14.64C-1.3,29.56,1.17,49.31,9.49,60.06A31.62,31.62,0,0,1,27.64,41.15ZM39,75.43l3.2-.18c.38,0,.76-.08,1.14-.13a36.08,36.08,0,0,0,22.86-12,1,1,0,0,0,.21-1.08,28.38,28.38,0,0,0-18-18.8,1.66,1.66,0,0,0-1.18.09,16.84,16.84,0,0,1-16.46,0,1.39,1.39,0,0,0-1.28-.11A28.58,28.58,0,0,0,11.6,62a1.06,1.06,0,0,0,.28,1.2A36.41,36.41,0,0,0,39,75.43Zm0-32.6A14.26,14.26,0,1,0,24.71,28.62,14.28,14.28,0,0,0,39.05,42.83Z"/></g></g></svg>